<svg id="Layer_1" data-name="Layer 1" xmlns="http://www.w3.org/2000/svg" viewBox="0 0 517.8 119.7"><defs><style>.cls-2{fill-rule:evenodd}</style></defs><path id="Logo-Icon" d="M98.5 70.2a7.21 7.21 0 01-6.1 7.4c-6.9 1.2-21.5 2-33.7 2s-26.7-.7-33.7-2a7.12 7.12 0 01-6-7.4V47.1a7.71 7.71 0 016-7.4 72.67 72.67 0 0110.6-.7 2.69 2.69 0 012.6 2.8v16.1c7.2 0 13.4-.4 20.6-.4s13.4.4 20.6.4V41.8a2.56 2.56 0 012.5-2.8 73.73 73.73 0 0110.6.7 7.8 7.8 0 016.1 7.4v23.1zM58.7.7C26.3.7 0 27.2 0 59.9A58.87 58.87 0 0058.7 119c32.4 0 58.7-26.5 58.7-59.1S91.2.7 58.7.7z" fill-rule="evenodd" fill="#ea2328"/><g id="Logo-Type"><path id="Fill-1" class="cls-2" d="M179.72 88.23c-18.2 0-27.4-13.3-27.4-28s9.5-27.8 27.6-27.8c6.9 0 11.9 1.5 16 4.3l-5.2 8.6a18.88 18.88 0 00-11-3.1c-9.8 0-15 7.9-15 17.7 0 10.1 5 18.5 15.2 18.5a18.62 18.62 0 0012-4.1l4.8 8.3c-2.8 2.4-9.3 5.6-17 5.6"/><path id="Fill-3" class="cls-2" d="M218.62 88.23c-13.6 0-19.6-10.4-19.6-20.6s5.9-20.8 19.5-20.8 19.8 10.3 19.8 20.5c0 10-6 20.9-19.7 20.9m-.3-33.2c-5.9 0-7.7 5-7.7 12.2s2.3 12.5 8.1 12.5 7.9-4.9 7.9-12.2-2.3-12.5-8.3-12.5"/><path id="Fill-5" class="cls-2" d="M255.62 47.73V73c0 3.9 1.3 5.8 5.1 5.8s6.9-3.8 7.7-4.8V47.73h11v27.9a57.69 57.69 0 001.1 11.6h-10.8a33.61 33.61 0 01-.8-5.2 15.53 15.53 0 01-12.5 6.2c-8.6 0-11.7-5.6-11.7-12.8v-27.7z"/><path id="Fill-7" class="cls-2" d="M306.32 88.23c-12.6 0-20.3-8.3-20.3-20.7 0-13.3 8.7-20.8 20.7-20.8 6.3 0 10.1 1.9 11.9 3.1l-3.5 7.6a14.2 14.2 0 00-8.1-2.3c-6.1 0-9.4 4.8-9.4 12s3.1 12.4 9.6 12.4a15.47 15.47 0 008.3-2.3l3.3 7.4c-1.8 1.2-5.4 3.6-12.5 3.6"/><path id="Fill-9" class="cls-2" d="M348.32 87.23v-25.3c0-3.9-1.3-5.8-5-5.8-4 0-7 3.7-7.8 4.8v26.4h-11v-58.4h11v23.5a15.74 15.74 0 0112.1-5.7c8.6 0 11.7 5.5 11.7 12.8v27.6h-11z"/><path id="Fill-11" class="cls-2" d="M379.22 28.93v21.9a13.83 13.83 0 019.5-4.1c9.7 0 16.5 6.7 16.5 20.4s-9 21-20.8 21c-8.9 0-14.3-2.2-16.2-3.2v-56zm0 49.7a16.44 16.44 0 005.2.8c5.7 0 9.1-4.2 9.1-12.3 0-7.3-2.4-11.6-8-11.6a9.07 9.07 0 00-6.4 2.9v20.2z"/><path id="Fill-13" class="cls-2" d="M432.52 87.23a26.28 26.28 0 01-.7-4.2 14.12 14.12 0 01-10.9 5.2c-6.6 0-11.8-4-11.8-11.1 0-10.3 10.4-14 20.8-14h1.3v-2.3c0-3.3-1.3-5.3-6.2-5.3a16.27 16.27 0 00-9.9 3.7l-4.7-6.8a23.45 23.45 0 0115.9-5.7c10.8 0 15.9 4.2 15.9 14.7v13.9a61.29 61.29 0 001.1 11.9zm-1.2-17.4H430c-6 0-10.2 1.8-10.2 6.3 0 2.8 2.2 4 4.6 4a9 9 0 006.9-3.3z"/><path id="Fill-15" class="cls-2" d="M462 88.23c-7 0-11.5-2.1-13.9-3.7l3.7-7.8a18.42 18.42 0 009.6 3.2c4 0 6.3-1.1 6.3-3.4 0-2.6-4.4-3.3-9.9-6s-8.5-5.7-8.5-11.6c0-7.5 5.8-12.2 14.7-12.2a24.88 24.88 0 0112.6 3.1l-3.8 7.6a15.66 15.66 0 00-8.3-2.5c-3.7 0-5.3 1.3-5.3 3.3 0 2.6 3.6 3.2 8 5 6.1 2.5 10.5 5.4 10.5 12.1-.1 8.5-6 12.9-15.7 12.9"/><path id="Fill-17" class="cls-2" d="M503.12 79.93a19.2 19.2 0 0010.1-2.7l3.5 7.1c-2.6 1.5-6.6 3.8-14.6 3.8-13.1 0-20.5-8.3-20.5-20.9s8.6-20.5 19.4-20.5c12.3 0 18.2 8.6 16.9 23.4h-24.5c.4 5.9 3.4 9.8 9.7 9.8zm4.1-17.3c-.1-4.4-1.8-7.9-6.5-7.9-4.4 0-6.8 2.8-7.5 7.9z"/></g></svg>